<?xml version="1.0" encoding="UTF-8" standalone="no"?>
<!-- Created with Inkscape (http://www.inkscape.org/) -->

<svg
   xmlns:dc="http://purl.org/dc/elements/1.1/"
   xmlns:cc="http://creativecommons.org/ns#"
   xmlns:rdf="http://www.w3.org/1999/02/22-rdf-syntax-ns#"
   xmlns:svg="http://www.w3.org/2000/svg"
   xmlns="http://www.w3.org/2000/svg"
   xmlns:sodipodi="http://sodipodi.sourceforge.net/DTD/sodipodi-0.dtd"
   xmlns:inkscape="http://www.inkscape.org/namespaces/inkscape"
   width="10.308549mm"
   height="9.9910851mm"
   viewBox="0 0 10.308549 9.9910851"
   version="1.1"
   id="svg4818"
   inkscape:version="0.92.1 r15371"
   sodipodi:docname="search.svg">
  <defs
     id="defs4812" />
  <sodipodi:namedview
     id="base"
     pagecolor="#ffffff"
     bordercolor="#666666"
     borderopacity="1.0"
     inkscape:pageopacity="0.0"
     inkscape:pageshadow="2"
     inkscape:zoom="0.35"
     inkscape:cx="-894.80501"
     inkscape:cy="-215.40492"
     inkscape:document-units="mm"
     inkscape:current-layer="layer1"
     showgrid="false"
     fit-margin-top="0"
     fit-margin-left="0"
     fit-margin-right="0"
     fit-margin-bottom="0"
     inkscape:window-width="1600"
     inkscape:window-height="827"
     inkscape:window-x="0"
     inkscape:window-y="73"
     inkscape:window-maximized="0" />
  <metadata
     id="metadata4815">
    <rdf:RDF>
      <cc:Work
         rdf:about="">
        <dc:format>image/svg+xml</dc:format>
        <dc:type
           rdf:resource="http://purl.org/dc/dcmitype/StillImage" />
        <dc:title></dc:title>
      </cc:Work>
    </rdf:RDF>
  </metadata>
  <g
     inkscape:label="Capa 1"
     inkscape:groupmode="layer"
     id="layer1"
     transform="translate(-121.84573,-81.849696)">
    <path
       style="opacity:1;vector-effect:none;fill:#ff0000;fill-opacity:1;stroke:#d8d8d8;stroke-width:0.10000002;stroke-miterlimit:4;stroke-dasharray:none;stroke-opacity:1;paint-order:normal"
       d="m 122.79568,83.038988 a 3.4880846,3.4788359 41.190226 0 0 0.24655,4.91988 3.4880846,3.4788359 41.190226 0 0 4.18493,0.37967 l 3.52523,3.19687 c 0.3637,0.330209 0.88693,0.341889 1.17278,0.0268 0.28599,-0.31506 0.22311,-0.83449 -0.14078,-1.1645 l -3.46643,-3.14352 a 3.4880846,3.4788359 41.190226 0 0 -0.60132,-4.4488 3.4880846,3.4788359 41.190226 0 0 -4.92097,0.23372 z m 0.93958,0.85207 a 2.2196903,2.2138048 41.190215 0 1 3.1315,-0.14876 2.2196903,2.2138048 41.190215 0 1 0.15697,3.13091 2.2196903,2.2138048 41.190215 0 1 -3.13163,0.14868 2.2196903,2.2138048 41.190215 0 1 -0.15684,-3.13083 z"
       id="path4937"
       inkscape:connector-curvature="0"
       inkscape:transform-center-x="-0.71064"
       inkscape:transform-center-y="-0.55068485" />
  </g>
</svg>
